<svg width="217.449" height="31.944" viewBox="0 0 217.449 31.944" xmlns="http://www.w3.org/2000/svg"><g id="svgGroup" stroke-linecap="round" fill-rule="evenodd" font-size="9pt" stroke="#000" stroke-width="0.25mm" fill="#000" style="stroke:#000;stroke-width:0.25mm;fill:#000"><path d="M 31.724 0.264 L 37.84 0.264 L 37.84 28.424 A 3.994 3.994 0 0 1 37.606 29.811 A 3.601 3.601 0 0 1 36.96 30.91 A 3.27 3.27 0 0 1 36.264 31.535 A 2.456 2.456 0 0 1 34.892 31.944 Q 31.856 31.944 29.92 28.424 L 19.096 11.484 L 19.096 31.592 L 12.98 31.592 L 12.98 0.264 L 18.876 0.264 L 31.724 20.768 L 31.724 0.264 Z M 67.452 0.264 L 67.452 31.592 L 61.336 31.592 L 61.336 18.92 L 49.852 18.92 L 49.852 31.592 L 43.736 31.592 L 43.736 0.264 L 49.852 0.264 L 49.852 13.508 L 61.336 13.508 L 61.336 0.264 L 67.452 0.264 Z M 193.908 21.648 L 199.452 21.384 Q 199.452 23.586 201.189 24.881 A 5.582 5.582 0 0 0 201.476 25.08 Q 203.5 26.4 205.964 26.4 A 11.57 11.57 0 0 0 207.903 26.253 Q 211.343 25.665 211.46 22.738 A 5.234 5.234 0 0 0 211.464 22.528 A 3.921 3.921 0 0 0 211.151 20.914 Q 210.43 19.301 208.045 18.844 A 8.631 8.631 0 0 0 207.724 18.788 L 202.62 18.26 A 13.719 13.719 0 0 1 199.871 17.572 Q 197.915 16.846 196.548 15.532 Q 194.304 13.376 194.304 9.328 A 8.2 8.2 0 0 1 196.942 3.148 A 10.496 10.496 0 0 1 197.516 2.64 Q 200.728 0 205.634 0 A 15.755 15.755 0 0 1 208.979 0.336 Q 211.223 0.823 212.922 2.019 A 9.637 9.637 0 0 1 213.532 2.486 A 8.148 8.148 0 0 1 215.867 5.531 A 8.375 8.375 0 0 1 216.524 8.888 L 211.068 9.152 A 5.194 5.194 0 0 0 210.33 7.259 Q 209.048 5.324 205.92 5.324 A 10.178 10.178 0 0 0 204.284 5.448 Q 202.738 5.7 201.718 6.468 A 4.584 4.584 0 0 0 200.893 7.254 A 2.996 2.996 0 0 0 200.2 9.174 A 3.563 3.563 0 0 0 200.367 10.291 A 2.874 2.874 0 0 0 201.3 11.638 A 4.983 4.983 0 0 0 203.108 12.57 A 6.47 6.47 0 0 0 204.028 12.76 L 209.044 13.288 A 13.511 13.511 0 0 1 212.572 14.218 Q 216.534 15.926 217.277 20.228 A 12.489 12.489 0 0 1 217.448 22.352 Q 217.448 26.796 214.192 29.326 A 11.694 11.694 0 0 1 209.417 31.501 A 16.728 16.728 0 0 1 205.876 31.856 Q 201.872 31.856 198.132 29.656 A 8.572 8.572 0 0 1 195.575 27.188 A 10.488 10.488 0 0 1 195.096 26.422 A 9.123 9.123 0 0 1 193.965 22.794 A 11.316 11.316 0 0 1 193.908 21.648 Z M 94.952 26.136 L 94.952 31.592 L 83.864 31.592 Q 79.535 31.592 77.321 30.365 A 5.246 5.246 0 0 1 76.45 29.766 A 5.233 5.233 0 0 1 75.039 27.752 Q 74.361 26.118 74.319 23.653 A 19.352 19.352 0 0 1 74.316 23.32 L 74.316 0.264 L 94.952 0.264 L 94.952 5.72 L 80.432 5.72 L 80.432 13.068 L 90.596 13.068 L 90.156 18.524 L 80.432 18.524 L 80.432 22.88 Q 80.432 24.728 81.268 25.432 Q 81.967 26.021 83.62 26.118 A 11.77 11.77 0 0 0 84.304 26.136 L 94.952 26.136 Z M 117.656 18.964 L 124.652 31.592 L 117.568 31.592 L 111.452 19.976 L 107.052 19.976 L 107.052 31.592 L 100.936 31.592 L 100.936 6.996 A 12.079 12.079 0 0 1 101.065 5.168 Q 101.211 4.213 101.525 3.455 A 4.73 4.73 0 0 1 102.564 1.87 Q 104.129 0.327 107.727 0.267 A 17.649 17.649 0 0 1 108.02 0.264 L 113.212 0.264 A 12.377 12.377 0 0 1 116.437 0.662 A 8.96 8.96 0 0 1 120.626 3.102 A 9.663 9.663 0 0 1 123.332 9.215 A 12.941 12.941 0 0 1 123.376 10.296 A 10.198 10.198 0 0 1 122.965 13.245 A 8.562 8.562 0 0 1 121.726 15.774 A 9.32 9.32 0 0 1 119.76 17.822 A 8.039 8.039 0 0 1 117.656 18.964 Z M 163.504 0.264 L 163.504 5.72 L 155.1 5.72 L 155.1 31.592 L 148.984 31.592 L 148.984 5.72 L 140.624 5.72 L 140.624 0.264 L 163.504 0.264 Z M 181.984 2.904 L 192.016 31.592 L 185.636 31.592 L 183.876 26.18 L 173.36 26.18 L 171.644 31.592 L 165.264 31.592 L 175.296 2.904 A 8.367 8.367 0 0 1 175.701 2.098 Q 176.198 1.239 176.77 0.836 A 3.09 3.09 0 0 1 177.999 0.332 A 4.231 4.231 0 0 1 178.772 0.264 Q 179.722 0.264 180.377 0.602 A 2.38 2.38 0 0 1 180.686 0.792 A 2.294 2.294 0 0 1 181.141 1.246 Q 181.515 1.728 181.842 2.533 A 10.155 10.155 0 0 1 181.984 2.904 Z M 6.116 0.264 L 6.116 31.592 L 0 31.592 L 0 0.264 L 6.116 0.264 Z M 135.828 0.264 L 135.828 31.592 L 129.712 31.592 L 129.712 0.264 L 135.828 0.264 Z M 112.816 5.72 L 109.78 5.72 A 3.858 3.858 0 0 0 108.692 5.86 Q 107.488 6.215 107.168 7.468 A 4.15 4.15 0 0 0 107.052 8.492 L 107.052 14.872 L 112.816 14.872 A 4.56 4.56 0 0 0 114.469 14.582 A 4.112 4.112 0 0 0 116.006 13.53 A 4.614 4.614 0 0 0 117.245 10.616 A 6.065 6.065 0 0 0 117.26 10.186 A 5.389 5.389 0 0 0 117.075 8.74 A 4.057 4.057 0 0 0 116.05 6.952 Q 114.84 5.72 112.816 5.72 Z M 174.9 21.032 L 182.468 21.032 L 178.772 8.624 L 174.9 21.032 Z" vector-effect="non-scaling-stroke"/></g></svg>