<svg
   xmlns="http://www.w3.org/2000/svg"
   style="fill:none"
   id="svg6"
   version="1.1"
   viewBox="0 0 27.169539 23.29542"
   height="23.29542"
   width="27.169538">
  <defs
     id="defs10" />
  <path
     style="stroke:#1dc071;stroke-width:2"
     id="path2"
     d="m 9.1694915,6.2928466 v -1.09413 c 0,-2.12024 0,-3.18036 0.67965,-3.77772 0.6796605,-0.59736999 1.7310105,-0.46130999 3.8337205,-0.1892 l 7.256629,0.9391 c 2.4911,0.32238 3.7367,0.48357 4.4833,1.33308 0.7467,0.84951 0.7467,2.10544 0.7467,4.6173 v 7.0528404 c 0,2.5119 0,3.7678 -0.7467,4.6173 -0.7466,0.8496 -1.9922,1.0107 -4.4833,1.3331 l -7.256629,0.9391 c -2.10271,0.2721 -3.15406,0.4082 -3.8337205,-0.1892 -0.67965,-0.5973 -0.67965,-1.6575 -0.67965,-3.7777 v -0.8764" />
  <path
     style="fill:#1dc071"
     id="path4"
     d="m 1.2335,11.240937 -0.8107,-0.5855 -0.4228,0.5855 0.4228,0.5855 z m 13.999999,1 c 0.552285,0 1,-0.4477 1,-1 0,-0.5523 -0.447715,-1 -1,-1 z M 4.7562,4.6554469 0.4228,10.655437 l 1.6214,1.171 4.33331,-6.0000101 z m -4.3334,7.1709901 4.3334,6 1.62131,-1.171 -4.33331,-6 z m 0.8107,0.4145 h 13.999999 v -2 H 1.2335 Z" />
</svg>
